<svg xmlns="http://www.w3.org/2000/svg" viewBox="0 0 76.34 76.34"><defs><style>.cls-1{fill:#2f00fb;}</style></defs><g id="Layer_2" data-name="Layer 2"><g id="Layer_1-2" data-name="Layer 1"><path class="cls-1" d="M75.91,14,62.34.44A1.5,1.5,0,0,0,61.28,0H17a4.47,4.47,0,0,0-4.47,4.47V7.32A19.72,19.72,0,0,0,0,25.66a1.49,1.49,0,0,0,1.49,1.49H19.7a1.49,1.49,0,0,0,1.49-1.49V7.46A1.5,1.5,0,0,0,19.7,6a19.92,19.92,0,0,0-4.19.45V4.47A1.49,1.49,0,0,1,17,3H59.79v9.1a4.48,4.48,0,0,0,4.48,4.47h9.09V71.87a1.49,1.49,0,0,1-1.49,1.49H17a1.49,1.49,0,0,1-1.49-1.49V59.1a1.49,1.49,0,0,0-3,0V71.87A4.47,4.47,0,0,0,17,76.34H71.87a4.47,4.47,0,0,0,4.47-4.47V15.06A1.49,1.49,0,0,0,75.91,14ZM18.2,9V24.17H3.05A16.75,16.75,0,0,1,18.2,9Zm46.07,4.56a1.5,1.5,0,0,1-1.5-1.49v-7l8.48,8.48Z"/><path class="cls-1" d="M15.07,52.62a1.51,1.51,0,0,0-2.11,0,1.51,1.51,0,0,0-.43,1.06,1.47,1.47,0,0,0,.43,1,1.48,1.48,0,0,0,2.11,0,1.48,1.48,0,0,0,.44-1A1.52,1.52,0,0,0,15.07,52.62Z"/><path class="cls-1" d="M25,11.31a1.48,1.48,0,0,0-1.49,1.49V29.51H6.83A1.49,1.49,0,0,0,5.34,31,19.7,19.7,0,1,0,25,11.31Zm1.49,3a16.66,16.66,0,0,1,9.22,3.83L26.53,27.4ZM25,47.71A16.73,16.73,0,0,1,8.39,32.49H25a1.47,1.47,0,0,0,1.05-.43h0L37.86,20.29A16.7,16.7,0,0,1,25,47.71Z"/><path class="cls-1" d="M65.32,47.06a4.48,4.48,0,0,0-4.12,6.22l-8.59,8.59a4.4,4.4,0,0,0-2-.45,4.35,4.35,0,0,0-1.91.43L43,56.14a4.38,4.38,0,0,0,.31-1.63,4.48,4.48,0,0,0-9,0,4.39,4.39,0,0,0,.42,1.88l-5.48,5.47a4.4,4.4,0,0,0-1.92-.44,4.45,4.45,0,1,0,4,2.54l5.44-5.44a4.38,4.38,0,0,0,2,.47,4.5,4.5,0,0,0,2.21-.59L46.63,64a4.33,4.33,0,0,0-.45,1.94A4.48,4.48,0,1,0,54.71,64l8.51-8.51a4.47,4.47,0,1,0,2.1-8.42ZM27.42,67.39a1.49,1.49,0,0,1,0-3,1.47,1.47,0,0,1,1,.41l0,0,0,0a1.49,1.49,0,0,1-1.07,2.53ZM38.88,56a1.5,1.5,0,1,1,1.49-1.5A1.5,1.5,0,0,1,38.88,56ZM50.66,67.38a1.49,1.49,0,1,1,1.49-1.49A1.49,1.49,0,0,1,50.66,67.38ZM65.32,53a1.49,1.49,0,1,1,1.49-1.49A1.49,1.49,0,0,1,65.32,53Z"/><path class="cls-1" d="M57.87,35H50a1.49,1.49,0,0,0,0,3h7.87a1.49,1.49,0,0,0,0-3Z"/><path class="cls-1" d="M65.71,35.48a1.48,1.48,0,0,0-2.11,0,1.47,1.47,0,0,0-.43,1.05,1.51,1.51,0,0,0,.43,1.06,1.51,1.51,0,0,0,2.11,0,1.52,1.52,0,0,0,.44-1.06A1.48,1.48,0,0,0,65.71,35.48Z"/><path class="cls-1" d="M68.21,20.73H50a1.49,1.49,0,1,0,0,3H68.21a1.49,1.49,0,1,0,0-3Z"/><path class="cls-1" d="M68.21,27.88H50a1.5,1.5,0,0,0,0,3H68.21a1.5,1.5,0,0,0,0-3Z"/></g></g></svg>