<svg xmlns="http://www.w3.org/2000/svg" viewBox="0 0 23.95 23.95"><defs><style>.cls-1{fill:#fff;}.cls-2{fill:#2f00fb;}</style></defs><g id="Layer_2" data-name="Layer 2"><g id="Layer_1-2" data-name="Layer 1"><circle class="cls-1" cx="11.98" cy="11.98" r="11.98"/><path class="cls-2" d="M18.23,9.34a4.71,4.71,0,0,0-.31-1.53,3.07,3.07,0,0,0-.73-1.11A3,3,0,0,0,16.07,6a4.59,4.59,0,0,0-1.53-.28c-.68,0-.89,0-2.6,0s-1.93,0-2.6.06A4.49,4.49,0,0,0,7.81,6a3,3,0,0,0-1.11.74A3,3,0,0,0,6,7.89,4.54,4.54,0,0,0,5.7,9.42c0,.67,0,.89,0,2.6s0,1.92.06,2.6A4.37,4.37,0,0,0,6,16.14a3.27,3.27,0,0,0,.74,1.12A3.31,3.31,0,0,0,7.89,18a4.8,4.8,0,0,0,1.53.28c.67,0,.89,0,2.6,0s1.92,0,2.6-.06a4.48,4.48,0,0,0,1.52-.3A3.2,3.2,0,0,0,18,16.06a4.51,4.51,0,0,0,.29-1.53c0-.67,0-.88,0-2.6S18.26,10,18.23,9.34Zm-1.1,5.15a3.72,3.72,0,0,1-.21,1.17,2.12,2.12,0,0,1-1.19,1.21,3.71,3.71,0,0,1-1.17.22c-.66,0-.86,0-2.54.06s-1.89,0-2.55,0a3.72,3.72,0,0,1-1.17-.21,1.88,1.88,0,0,1-.73-.47,1.91,1.91,0,0,1-.47-.72,3.37,3.37,0,0,1-.23-1.17c0-.66,0-.86,0-2.54s0-1.89,0-2.55A3.21,3.21,0,0,1,7.05,8.3a1.81,1.81,0,0,1,.46-.73,2,2,0,0,1,.72-.47A3.43,3.43,0,0,1,9.4,6.87c.67,0,.87,0,2.55,0s1.88,0,2.54,0a3.33,3.33,0,0,1,1.18.21,1.89,1.89,0,0,1,.72.46,2,2,0,0,1,.48.72,3.43,3.43,0,0,1,.22,1.17c0,.67.05.87.06,2.55S17.15,13.83,17.13,14.49Z"/><path class="cls-2" d="M12,8.74A3.24,3.24,0,1,0,15.22,12,3.24,3.24,0,0,0,12,8.74Zm0,5.34A2.11,2.11,0,0,1,9.88,12a2.1,2.1,0,0,1,4.2,0A2.11,2.11,0,0,1,12,14.08Z"/><path class="cls-2" d="M16.08,8.58a.76.76,0,0,1-.75.76.74.74,0,0,1-.76-.75.76.76,0,0,1,.75-.76A.77.77,0,0,1,16.08,8.58Z"/></g></g></svg>