<svg xmlns="http://www.w3.org/2000/svg" viewBox="0 0 23.95 23.95"><defs><style>.cls-1{fill:#fff;}.cls-2{fill:#2f00fb;}</style></defs><g id="Layer_2" data-name="Layer 2"><g id="Layer_1-2" data-name="Layer 1"><circle class="cls-1" cx="11.98" cy="11.98" r="11.98"/><path class="cls-2" d="M9.27,16.93a.36.36,0,0,1-.36.36H7.38A.36.36,0,0,1,7,16.93v-6.4a.36.36,0,0,1,.36-.36H8.91a.36.36,0,0,1,.36.36ZM8.15,9.56A1.45,1.45,0,1,1,9.6,8.11,1.45,1.45,0,0,1,8.15,9.56ZM17.26,17a.33.33,0,0,1-.33.33H15.29A.33.33,0,0,1,15,17V14c0-.45.13-2-1.17-2-1,0-1.22,1-1.26,1.51V17a.33.33,0,0,1-.33.33H10.61a.33.33,0,0,1-.33-.33V10.5a.33.33,0,0,1,.33-.33H12.2a.33.33,0,0,1,.33.33v.56a2.23,2.23,0,0,1,2.12-1c2.62,0,2.61,2.45,2.61,3.8V17Z"/></g></g></svg>