<svg xmlns="http://www.w3.org/2000/svg" viewBox="0 0 152.95 41.61"><defs><style>.cls-1{fill:#fff;}</style></defs><g id="Layer_2" data-name="Layer 2"><g id="Layer_1-2" data-name="Layer 1"><path class="cls-1" d="M141.33,11.05v0s-1-2.81-6.71-2.81-6.7,2.81-6.7,2.81v3.49a7.45,7.45,0,0,1,3.31.41,9.68,9.68,0,0,1,3.39,1.91,9.73,9.73,0,0,1,3.4-1.91,7.44,7.44,0,0,1,3.31-.41Z"/><path class="cls-1" d="M146.61,13.41h0a.46.46,0,0,1-.46-.47V8.7L148,7.59,134.62,0,121.21,7.59,127.07,11c.3-.65,1.85-3.31,7.55-3.31s7.26,2.66,7.55,3.31l3-1.72v3.69a.47.47,0,0,1-.47.47h0a.47.47,0,0,0-.46.46v0a.47.47,0,0,0,.46.47h2a.47.47,0,0,0,.46-.47v0A.47.47,0,0,0,146.61,13.41Z"/><path class="cls-1" d="M146.15,15.5l.41,6.09a.54.54,0,0,1-.55.58h-.75a.54.54,0,0,1-.55-.58l.41-6.09a.52.52,0,1,1,1,0Z"/><path class="cls-1" d="M152.18,11.36c-.4-.61-2.45-2.56-1.93-.68.63,2.24-.6,3.84-2.69,4.5a8.47,8.47,0,0,1-.92.22l.26,4.13a13.61,13.61,0,0,0,2.7-.65A5.19,5.19,0,0,0,152.18,11.36Z"/><path class="cls-1" d="M148.37,21.23c-.49-.06-.93-.2-1.39-.29l0,.62a1,1,0,0,1-.27.76,1,1,0,0,1-.74.31h-.75a1,1,0,0,1-1-1.07l0-.5c-.23,0-.41-.13-.43-.35s.25-.42.38-.54l.11-.08.28-4.41a4.52,4.52,0,0,1-1.89-.06c-.14-.09-.23-.24-.37-.34a3.05,3.05,0,0,0-1.3-.33l-.46,0a7,7,0,0,0-2.42.42A9.22,9.22,0,0,0,135,17.16l-.33.33-.33-.33a9.26,9.26,0,0,0-3.22-1.81,7.05,7.05,0,0,0-2.43-.42l-.45,0a3.06,3.06,0,0,0-1.31.33c-.14.1-.22.25-.37.34-.55.35-3.94-.15-4.83-.44-2.09-.66-3.31-2.26-2.69-4.5.52-1.88-1.53.07-1.92.68a5.18,5.18,0,0,0,2.58,7.52c2,.8,4.73.72,5.36,1.29.13.12.41.33.39.54-.09.67-1.52.22-1.9.16a9.21,9.21,0,0,0-2.62.36c-.29,0-2.16.33-1.95.81a2.68,2.68,0,0,0,1,1.17c.08.05.17.09.25.15.23.22.36.5.61.72a9.81,9.81,0,0,0,1,.7,8,8,0,0,0,1.62.83,4.54,4.54,0,0,0,1.21.23,3.08,3.08,0,0,0,.91-.06,3.24,3.24,0,0,0,.83-.37,1.46,1.46,0,0,1,.52-.21c.31,0,.25.25.23.48a2.8,2.8,0,0,0-.3,1.48,9.86,9.86,0,0,0,1.65,5.35,4.08,4.08,0,0,1,.72,2.63c0,.15.08,1,.11,1.31a6.29,6.29,0,0,0,2.41,4c.07.09.18.17.24.26s.23.54.37.59a9.31,9.31,0,0,0,4.61,0c.13,0,.29-.47.36-.59a3,3,0,0,1,.25-.26,6.3,6.3,0,0,0,2.4-4c0-.29.09-1.16.11-1.31a4.09,4.09,0,0,1,.73-2.63,9.91,9.91,0,0,0,1.64-5.35,2.8,2.8,0,0,0-.3-1.48c0-.23-.08-.48.23-.48a1.39,1.39,0,0,1,.52.21,3.31,3.31,0,0,0,.84.37,3,3,0,0,0,.9.06,4.69,4.69,0,0,0,1.22-.23,8.55,8.55,0,0,0,1.62-.83,8.67,8.67,0,0,0,1-.7c.25-.22.39-.5.62-.72a1.94,1.94,0,0,1,.24-.15,2.68,2.68,0,0,0,1-1.17C150.53,21.56,148.66,21.27,148.37,21.23Z"/><path class="cls-1" d="M53.66,30.41a4.66,4.66,0,0,0,1.11.9,2.28,2.28,0,0,0,1.09.29,1.13,1.13,0,0,0,.74-.23.72.72,0,0,0,.28-.6c0-.34-.37-.7-1.12-1.09l-.17-.09a4.59,4.59,0,0,1-1.5-1.09,2,2,0,0,1-.4-1.27A3,3,0,0,1,54.61,25,3.35,3.35,0,0,1,57,24.11a4.18,4.18,0,0,1,1.48.28,4.54,4.54,0,0,1,1.34.8L58.76,27a5,5,0,0,0-.91-.64,1.69,1.69,0,0,0-.76-.2,1,1,0,0,0-.63.21.69.69,0,0,0-.25.54c0,.26.31.55.94.87l.52.28A3.76,3.76,0,0,1,59,29.17a2.42,2.42,0,0,1,.38,1.39,3,3,0,0,1-1,2.37,4.13,4.13,0,0,1-2.79.89,3.83,3.83,0,0,1-1.74-.4,4.44,4.44,0,0,1-1.46-1.17Zm14.92-5.63-.42,2.55A3.67,3.67,0,0,0,67,26.64a3.61,3.61,0,0,0-1.3-.24,2.46,2.46,0,0,0-1.89.8,2.87,2.87,0,0,0-.75,2A2.32,2.32,0,0,0,63.7,31a2.39,2.39,0,0,0,1.76.62,4.57,4.57,0,0,0,1-.12,6.93,6.93,0,0,0,1.09-.36l-.38,2.39a6.25,6.25,0,0,1-1,.23,9.41,9.41,0,0,1-1.23.08,4.22,4.22,0,0,1-3.17-1.23,4.44,4.44,0,0,1-1.19-3.24,5.78,5.78,0,0,1,.31-1.87,5,5,0,0,1,.9-1.61,4.45,4.45,0,0,1,1.73-1.29,5.8,5.8,0,0,1,2.33-.45,6.12,6.12,0,0,1,1.42.16A6.38,6.38,0,0,1,68.58,24.78Z"/><polygon class="cls-1" points="68.69 33.59 70.15 24.35 72.64 24.35 72.06 27.91 75.29 27.91 75.86 24.35 78.35 24.35 76.88 33.59 74.39 33.59 74.98 29.81 71.77 29.81 71.17 33.59 68.69 33.59"/><path class="cls-1" d="M87.9,25.34a4.72,4.72,0,0,0-3.36-1.2,5.71,5.71,0,0,0-2.31.46,4.89,4.89,0,0,0-1.8,1.34,5.05,5.05,0,0,0-1,1.63,5.79,5.79,0,0,0-.32,1.93,4.58,4.58,0,0,0,.37,1.81,4.1,4.1,0,0,0,1,1.44,4.26,4.26,0,0,0,1.44.81,5.67,5.67,0,0,0,1.8.27,5.59,5.59,0,0,0,2.3-.46A5.14,5.14,0,0,0,87.91,32a5,5,0,0,0,1-1.63,5.59,5.59,0,0,0,.33-1.93A4.07,4.07,0,0,0,87.9,25.34Zm-2.06,5.39a2.45,2.45,0,0,1-1.88.84,2.17,2.17,0,0,1-1.63-.63,2.42,2.42,0,0,1-.61-1.71,2.86,2.86,0,0,1,.77-2,2.5,2.5,0,0,1,1.89-.81A2.15,2.15,0,0,1,86,27a2.24,2.24,0,0,1,.63,1.64A2.91,2.91,0,0,1,85.84,30.73Z"/><path class="cls-1" d="M94.94,33.83a5.69,5.69,0,0,1-1.81-.27,4.26,4.26,0,0,1-1.44-.81,4.08,4.08,0,0,1-1-1.44,4.42,4.42,0,0,1-.38-1.81,5.79,5.79,0,0,1,.32-1.93,5.24,5.24,0,0,1,1-1.63,5.06,5.06,0,0,1,1.8-1.34,5.71,5.71,0,0,1,2.31-.46A4.74,4.74,0,0,1,99,25.34a4.09,4.09,0,0,1,1.28,3.12,5.83,5.83,0,0,1-.32,1.93A5.33,5.33,0,0,1,99,32a5.09,5.09,0,0,1-1.81,1.35A5.54,5.54,0,0,1,94.94,33.83Zm.56-7.43a2.5,2.5,0,0,0-1.89.81,2.85,2.85,0,0,0-.76,2,2.37,2.37,0,0,0,.61,1.71,2.13,2.13,0,0,0,1.62.63A2.48,2.48,0,0,0,97,30.73a3,3,0,0,0,.77-2.05A2.24,2.24,0,0,0,97.11,27,2.15,2.15,0,0,0,95.5,26.4Z"/><path class="cls-1" d="M101.11,33.59l1.46-9.24h2.49l-1.12,7h3l-.34,2.21Z"/><path class="cls-1" d="M10.09,8.61v3.91a5.55,5.55,0,0,0-1.47-1.2,3.4,3.4,0,0,0-1.57-.38A3.2,3.2,0,0,0,4.55,12a3.92,3.92,0,0,0-1,2.75,3.68,3.68,0,0,0,1,2.62,3.24,3.24,0,0,0,2.48,1.05A3.29,3.29,0,0,0,8.62,18a5.18,5.18,0,0,0,1.47-1.2v3.92a8.54,8.54,0,0,1-1.7.62,7,7,0,0,1-1.71.21,7.42,7.42,0,0,1-2-.26A5.91,5.91,0,0,1,3,20.55,6.7,6.7,0,0,1,.77,18.06,7.34,7.34,0,0,1,0,14.68a7.36,7.36,0,0,1,.49-2.75A6.78,6.78,0,0,1,2,9.69a6.16,6.16,0,0,1,2.1-1.44,7.09,7.09,0,0,1,2.61-.47A7,7,0,0,1,8.39,8,8,8,0,0,1,10.09,8.61Z"/><path class="cls-1" d="M25.61,14.7a6.63,6.63,0,0,1-2,4.87,7.13,7.13,0,0,1-7.68,1.5,6.81,6.81,0,0,1-2.27-1.5,6.58,6.58,0,0,1-1.54-2.22,6.92,6.92,0,0,1,0-5.31,6.58,6.58,0,0,1,1.54-2.22,6.81,6.81,0,0,1,2.27-1.5,7.09,7.09,0,0,1,2.7-.52,7.16,7.16,0,0,1,2.7.52,7,7,0,0,1,2.28,1.5A6.61,6.61,0,0,1,25.09,12,6.78,6.78,0,0,1,25.61,14.7Zm-7,3.86a3.16,3.16,0,0,0,2.46-1.1,4,4,0,0,0,1-2.76,4,4,0,0,0-1-2.76,3.29,3.29,0,0,0-4.92,0,4,4,0,0,0-1,2.77,4,4,0,0,0,1,2.77A3.15,3.15,0,0,0,18.59,18.56Z"/><path class="cls-1" d="M27.86,21.25V8.09H30.6a22.35,22.35,0,0,1,4.33.29,6.29,6.29,0,0,1,2.24,1,5.66,5.66,0,0,1,1.89,2.23,7.21,7.21,0,0,1,.65,3.11,7.16,7.16,0,0,1-.65,3.1A5.59,5.59,0,0,1,37.17,20,6.13,6.13,0,0,1,35,21a18.14,18.14,0,0,1-3.79.29H27.86Zm3.55-2.95H32a4.53,4.53,0,0,0,3.08-.87,3.5,3.5,0,0,0,1-2.75,3.56,3.56,0,0,0-1-2.77A4.48,4.48,0,0,0,32,11h-.6Z"/><path class="cls-1" d="M42,21.25V8.09H50V11H45.45v2.28h4.3v2.82h-4.3V18.3H50v2.95Z"/><path class="cls-1" d="M52.38,21.25V8.09H56a21.64,21.64,0,0,1,3.11.15,4.61,4.61,0,0,1,1.52.49,2.75,2.75,0,0,1,1.11,1.08,3.12,3.12,0,0,1,.38,1.57,2.62,2.62,0,0,1-.57,1.79,3.59,3.59,0,0,1-1.81,1,3.16,3.16,0,0,1,2.19,1,3.38,3.38,0,0,1,.79,2.34,3.7,3.7,0,0,1-.45,1.85A3,3,0,0,1,61,20.58a5.15,5.15,0,0,1-1.66.51,22.35,22.35,0,0,1-3.24.16Zm3.33-7.9h.72a4,4,0,0,0,1.82-.29,1.08,1.08,0,0,0,.49-1A1.15,1.15,0,0,0,58.28,11a3.67,3.67,0,0,0-1.8-.3h-.77Zm0,5.21H57a3.71,3.71,0,0,0,1.8-.32,1.13,1.13,0,0,0,.53-1.06A1.3,1.3,0,0,0,58.82,16a3.48,3.48,0,0,0-1.8-.33H55.71Z"/><path class="cls-1" d="M64.78,8.09h3.58v6.4a19.4,19.4,0,0,0,.07,2,4.23,4.23,0,0,0,.24,1,1.48,1.48,0,0,0,.72.76,2.65,2.65,0,0,0,1.25.27,2.61,2.61,0,0,0,1.24-.27,1.54,1.54,0,0,0,.73-.76,4.23,4.23,0,0,0,.24-1,19.4,19.4,0,0,0,.07-2V8.09h3.57v7a14.37,14.37,0,0,1-.26,3.19A4.42,4.42,0,0,1,75.35,20a4.12,4.12,0,0,1-1.86,1.2,10.39,10.39,0,0,1-5.71,0A4.23,4.23,0,0,1,65.92,20a4.28,4.28,0,0,1-.87-1.76,13.66,13.66,0,0,1-.27-3.19v-7Z"/><path class="cls-1" d="M79.21,21.25V8.09h3.58V18.17h4.46v3.08Z"/><path class="cls-1" d="M89,21.25V8.09h3.58V18.17H97v3.08Z"/><path class="cls-1" d="M99.38,17A6.47,6.47,0,0,0,101,18.35a3.09,3.09,0,0,0,1.55.45,1.84,1.84,0,0,0,1.19-.38,1.37,1.37,0,0,0,.06-2,5.16,5.16,0,0,0-1.81-.74,5.87,5.87,0,0,1-2.73-1.35,3.15,3.15,0,0,1-.8-2.29A4,4,0,0,1,99.67,9a4.58,4.58,0,0,1,3.27-1.19,7.34,7.34,0,0,1,2.07.29,6.79,6.79,0,0,1,1.84.89l-1.12,2.57a5,5,0,0,0-1.26-.78,3.22,3.22,0,0,0-1.27-.27,1.72,1.72,0,0,0-1,.31,1,1,0,0,0-.4.8,1,1,0,0,0,.35.79,3.72,3.72,0,0,0,1.37.56l.17.05a6.67,6.67,0,0,1,2.88,1.3,3.23,3.23,0,0,1,.71,1.17,4.45,4.45,0,0,1,.24,1.5,4.39,4.39,0,0,1-1.37,3.37,5.23,5.23,0,0,1-3.67,1.27,6.51,6.51,0,0,1-2.5-.47,7,7,0,0,1-2.17-1.47Z"/></g></g></svg>