<svg xmlns="http://www.w3.org/2000/svg" viewBox="0 0 167.83 17.17"><defs><style>.cls-1{fill:#fff;}</style></defs><g id="Layer_2" data-name="Layer 2"><g id="Layer_1-2" data-name="Layer 1"><path class="cls-1" d="M0,8.88.9,3.23H2.45a7.52,7.52,0,0,1,1,0A1.54,1.54,0,0,1,4,3.46a1.41,1.41,0,0,1,.65.6A1.85,1.85,0,0,1,4.84,5a2,2,0,0,1-.23,1,1.7,1.7,0,0,1-.62.7,1.7,1.7,0,0,1-.55.2,5.84,5.84,0,0,1-1,.06H1.82l-.32,2ZM2,5.71h.14a2.19,2.19,0,0,0,1-.15A.58.58,0,0,0,3.4,5a.51.51,0,0,0-.22-.46,1.39,1.39,0,0,0-.7-.14H2.21Z"/><path class="cls-1" d="M8.12,9A3.43,3.43,0,0,1,7,8.86a2.67,2.67,0,0,1-.89-.49,2.45,2.45,0,0,1-.63-.88,2.79,2.79,0,0,1-.23-1.11,3.52,3.52,0,0,1,.2-1.18,3,3,0,0,1,.58-1,3.08,3.08,0,0,1,1.1-.82A3.45,3.45,0,0,1,8.56,3.1a2.88,2.88,0,0,1,2.06.73,2.52,2.52,0,0,1,.79,1.91,3.52,3.52,0,0,1-.2,1.18A3.17,3.17,0,0,1,9.52,8.75,3.37,3.37,0,0,1,8.12,9Zm.35-4.55A1.52,1.52,0,0,0,7.31,5a1.74,1.74,0,0,0-.47,1.24,1.44,1.44,0,0,0,.37,1,1.32,1.32,0,0,0,1,.39,1.5,1.5,0,0,0,1.15-.52,1.76,1.76,0,0,0,.48-1.25,1.39,1.39,0,0,0-.39-1A1.33,1.33,0,0,0,8.47,4.48Z"/><path class="cls-1" d="M13,8.88,12,3.23h1.5l.44,3.05c0,.18,0,.34,0,.47s0,.27,0,.39l.13-.51.12-.38,1-3h1.4L17,6.28c0,.17,0,.33,0,.47l0,.39a3.15,3.15,0,0,1,.09-.36c0-.13.1-.3.18-.53l1.14-3h1.57L17.72,8.88H16.17l-.38-2.63c0-.18,0-.33-.06-.47s0-.27,0-.39c-.05.17-.09.33-.13.48s-.09.28-.12.41l-.86,2.6Z"/><path class="cls-1" d="M21.51,7.62h1.75l-.2,1.26H19.8l.89-5.65H24l-.2,1.3H22l-.14.93h1.62l-.19,1.22H21.66Z"/><path class="cls-1" d="M25.61,8.88h-1.5L25,3.23h1.51a6.46,6.46,0,0,1,1,0,1.82,1.82,0,0,1,.57.16,1.35,1.35,0,0,1,.65.57,1.61,1.61,0,0,1,.22.87,1.72,1.72,0,0,1-.42,1.18,1.91,1.91,0,0,1-1.15.59l1.38,2.23H27L26,6.72Zm.48-3.07h.48a1.07,1.07,0,0,0,.69-.2A.75.75,0,0,0,27.5,5a.6.6,0,0,0-.23-.52,1.23,1.23,0,0,0-.72-.17h-.22Z"/><path class="cls-1" d="M31.05,7.62H32.8l-.2,1.26H29.34l.9-5.65h3.25l-.2,1.3H31.54l-.14.93H33l-.19,1.22H31.2Z"/><path class="cls-1" d="M33.64,8.88l.89-5.65h1a14,14,0,0,1,1.56.06,2.52,2.52,0,0,1,.75.2,2.21,2.21,0,0,1,1,.93,3,3,0,0,1,.33,1.46,3.19,3.19,0,0,1-.3,1.42,2.58,2.58,0,0,1-.89,1,2.7,2.7,0,0,1-1,.42A9.86,9.86,0,0,1,35,8.88H33.64Zm1.72-1.26h.37a1.91,1.91,0,0,0,1.38-.46,1.79,1.79,0,0,0,.47-1.34,1.39,1.39,0,0,0-.34-1,1.57,1.57,0,0,0-1.11-.33h-.29Z"/><path class="cls-1" d="M45.37,5.94a1.33,1.33,0,0,1,.82.43,1.25,1.25,0,0,1,.29.85,1.69,1.69,0,0,1-.2.8,1.43,1.43,0,0,1-.52.57,1.57,1.57,0,0,1-.62.22,7.23,7.23,0,0,1-1.24.07H42l.9-5.65h1.28c.5,0,.85,0,1.06,0a2.28,2.28,0,0,1,.53.13,1.08,1.08,0,0,1,.55.46,1.27,1.27,0,0,1,.21.72,1.4,1.4,0,0,1-.32.93A1.35,1.35,0,0,1,45.37,5.94ZM43.68,7.77h.18a1.7,1.7,0,0,0,.91-.16A.71.71,0,0,0,45,7a.5.5,0,0,0-.2-.44,1.15,1.15,0,0,0-.65-.13h-.27Zm.37-2.35h.13a1.36,1.36,0,0,0,.75-.15.57.57,0,0,0,.2-.49A.4.4,0,0,0,45,4.42a1,1,0,0,0-.53-.11h-.22Z"/><path class="cls-1" d="M47.86,8.88l.4-2.52-1.6-3.13h1.69L49,4.67l.1.25.1.3.17-.37a.78.78,0,0,1,.1-.19l1-1.43h1.74L49.77,6.37l-.39,2.51Z"/><path class="cls-1" d="M63.49,3.44V6.76a4.41,4.41,0,0,0-1.24-1,2.83,2.83,0,0,0-1.34-.33,2.72,2.72,0,0,0-2.12.9A3.36,3.36,0,0,0,58,8.66a3.13,3.13,0,0,0,.82,2.22,2.79,2.79,0,0,0,2.11.89,2.83,2.83,0,0,0,1.34-.33,4.29,4.29,0,0,0,1.24-1v3.33a7,7,0,0,1-1.44.53,5.93,5.93,0,0,1-1.45.17,6.47,6.47,0,0,1-1.69-.21,5,5,0,0,1-1.42-.66,5.62,5.62,0,0,1-1.91-2.12,6.12,6.12,0,0,1-.66-2.86,6.25,6.25,0,0,1,.42-2.34,5.7,5.7,0,0,1,1.25-1.9,5.33,5.33,0,0,1,1.79-1.22,6.32,6.32,0,0,1,3.67-.23A7,7,0,0,1,63.49,3.44Z"/><path class="cls-1" d="M76.68,8.61A5.64,5.64,0,0,1,75,12.75,6.07,6.07,0,0,1,68.42,14a5.79,5.79,0,0,1-1.93-1.27,5.69,5.69,0,0,1-1.31-1.89,5.9,5.9,0,0,1-.44-2.25,5.82,5.82,0,0,1,.44-2.25,5.69,5.69,0,0,1,1.31-1.89A5.79,5.79,0,0,1,68.42,3.2,6.05,6.05,0,0,1,73,3.2a5.77,5.77,0,0,1,2,1.27,5.74,5.74,0,0,1,1.73,4.14Zm-6,3.28a2.7,2.7,0,0,0,2.1-.93,3.4,3.4,0,0,0,.82-2.35,3.36,3.36,0,0,0-.84-2.34,2.79,2.79,0,0,0-4.17,0,3.4,3.4,0,0,0-.83,2.35A3.41,3.41,0,0,0,68.61,11,2.68,2.68,0,0,0,70.71,11.89Z"/><path class="cls-1" d="M78.59,14.17V3h2.32a18.25,18.25,0,0,1,3.68.25,5.26,5.26,0,0,1,1.9.81A4.85,4.85,0,0,1,88.1,6a6,6,0,0,1,.55,2.64,6,6,0,0,1-.55,2.63,4.85,4.85,0,0,1-1.61,1.9,5.33,5.33,0,0,1-1.85.8,15.58,15.58,0,0,1-3.22.24H78.59Zm3-2.5h.51a3.87,3.87,0,0,0,2.62-.74,3,3,0,0,0,.82-2.33,3,3,0,0,0-.82-2.35,3.81,3.81,0,0,0-2.62-.75H81.6Z"/><path class="cls-1" d="M90.56,14.17V3H97.4V5.45H93.52V7.39h3.66v2.4H93.52v1.88H97.4v2.5Z"/><path class="cls-1" d="M99.42,14.17V3h3a19.51,19.51,0,0,1,2.65.12,4.44,4.44,0,0,1,1.29.42,2.41,2.41,0,0,1,1,.92,2.75,2.75,0,0,1,.32,1.33,2.21,2.21,0,0,1-.49,1.52,3,3,0,0,1-1.54.85,2.66,2.66,0,0,1,1.86.84,2.81,2.81,0,0,1,.67,2,3.17,3.17,0,0,1-.37,1.57,2.69,2.69,0,0,1-1.08,1.06,4.48,4.48,0,0,1-1.42.43,19.57,19.57,0,0,1-2.74.13Zm2.82-6.7h.61a3.42,3.42,0,0,0,1.55-.25.92.92,0,0,0,.42-.86,1,1,0,0,0-.4-.89,3.11,3.11,0,0,0-1.53-.25h-.65Zm0,4.42h1.07a3.16,3.16,0,0,0,1.53-.27,1,1,0,0,0,.45-.9,1.1,1.1,0,0,0-.41-1,2.92,2.92,0,0,0-1.53-.28h-1.11Z"/><path class="cls-1" d="M109.94,3h3V8.44a17.21,17.21,0,0,0,.06,1.72,3.17,3.17,0,0,0,.21.87,1.28,1.28,0,0,0,.61.65,2.56,2.56,0,0,0,2.12,0,1.33,1.33,0,0,0,.61-.65,3.17,3.17,0,0,0,.21-.87,17.21,17.21,0,0,0,.06-1.72V3h3V8.91a12.53,12.53,0,0,1-.22,2.71,3.68,3.68,0,0,1-.75,1.49,3.5,3.5,0,0,1-1.58,1,8.82,8.82,0,0,1-4.85,0,3.61,3.61,0,0,1-1.58-1,3.8,3.8,0,0,1-.74-1.49,11.79,11.79,0,0,1-.23-2.71V3Z"/><path class="cls-1" d="M122.2,14.17V3h3v8.56H129v2.61Z"/><path class="cls-1" d="M130.52,14.17V3h3v8.56h3.78v2.61Z"/><path class="cls-1" d="M139.33,10.56a5.51,5.51,0,0,0,1.34,1.16,2.65,2.65,0,0,0,1.31.38,1.52,1.52,0,0,0,1-.33,1,1,0,0,0,.39-.83,1.08,1.08,0,0,0-.34-.86,4.29,4.29,0,0,0-1.54-.62,5.05,5.05,0,0,1-2.32-1.16,2.7,2.7,0,0,1-.68-1.94,3.43,3.43,0,0,1,1.07-2.61,3.89,3.89,0,0,1,2.79-1,6.27,6.27,0,0,1,1.75.24,5.9,5.9,0,0,1,1.56.75l-.95,2.19a4,4,0,0,0-1.06-.66A2.87,2.87,0,0,0,142.58,5a1.43,1.43,0,0,0-.89.26.86.86,0,0,0-.05,1.35,3.17,3.17,0,0,0,1.17.48l.13,0a5.59,5.59,0,0,1,2.45,1.11,2.63,2.63,0,0,1,.61,1,3.93,3.93,0,0,1,.2,1.27A3.7,3.7,0,0,1,145,13.39a4.38,4.38,0,0,1-3.11,1.08,5.38,5.38,0,0,1-2.12-.4A6,6,0,0,1,138,12.83Z"/><path class="cls-1" d="M157.09,5.82c0-1.76-1-2-1.86-2a14.5,14.5,0,0,0-2.1.2,15.8,15.8,0,0,1-2.11.2c-2.32,0-3.31-1.53-3.31-3.68V0h1.39V.43c0,1.49.81,2,2.17,2a16.2,16.2,0,0,0,1.79-.18,11.76,11.76,0,0,1,1.91-.2,2.43,2.43,0,0,1,2.73,1.84h.05a2.46,2.46,0,0,1,2.74-1.84,12.14,12.14,0,0,1,1.95.2,15.85,15.85,0,0,0,1.81.18c1.41,0,2.17-.61,2.19-2V0h1.39V.53c0,2.07-.91,3.65-3.45,3.65A12.13,12.13,0,0,1,162.31,4a18.79,18.79,0,0,0-2-.18c-.81,0-1.89.25-1.89,2Z"/><path class="cls-1" d="M156.89,17.17,150.65,5h1.81l5.14,10.32h.05L162.78,5h1.81l-6.21,12.15Z"/></g></g></svg>