<svg xmlns="http://www.w3.org/2000/svg" viewBox="0 0 76.19 75.04"><defs><style>.cls-1{fill:#2f00fb;}</style></defs><g id="Layer_2" data-name="Layer 2"><g id="Layer_1-2" data-name="Layer 1"><path class="cls-1" d="M74.39,35.06a6.85,6.85,0,0,0-4.25-1.79,6.09,6.09,0,0,0-4.69,1.79L57,43.44a5.22,5.22,0,0,0-.57-.82,5.49,5.49,0,0,0-4.29-1.92H40.26a24.43,24.43,0,0,1-6.49-.86A16,16,0,0,0,18.89,43,21.11,21.11,0,0,0,15,47.15l-2.13-2.06a1.48,1.48,0,0,0-1.05-.43h0a1.5,1.5,0,0,0-1.07.46L.42,55.85A1.49,1.49,0,0,0,0,56.92,1.56,1.56,0,0,0,.46,58L18,74.63a1.51,1.51,0,0,0,2.11,0L30.3,64.08A1.5,1.5,0,0,0,30.72,63a1.47,1.47,0,0,0-.45-1l-.89-.87,2-.23a33.18,33.18,0,0,1,3.73-.21h18a13.51,13.51,0,0,0,7.41-1.91l0,0A9.86,9.86,0,0,0,62.56,57l12.16-14.3A5.23,5.23,0,0,0,74.39,35.06ZM18.94,71.43,3.62,56.85l8.26-8.57L27.11,63.06ZM72.43,40.72,60.27,55A6.49,6.49,0,0,1,59,56.22a10.7,10.7,0,0,1-5.77,1.42h-18a34.47,34.47,0,0,0-4.07.24l-4.49.5L17.2,49.26a18.76,18.76,0,0,1,3.59-3.95A12.88,12.88,0,0,1,33,42.73a27.51,27.51,0,0,0,7.29,1H52.12a2.71,2.71,0,0,1,2.7,2.93,3.26,3.26,0,0,1-.7,2.08,2.57,2.57,0,0,1-2,.86H41.75a1.5,1.5,0,0,0,0,3H52.07a5.55,5.55,0,0,0,4.33-1.92,6.12,6.12,0,0,0,1.41-3.81l9.76-9.66a3.52,3.52,0,0,1,4.79.08A2.26,2.26,0,0,1,72.43,40.72Z"/><path class="cls-1" d="M37.07,50.67a1.5,1.5,0,1,0-2.92.69l0,.06a1.49,1.49,0,0,0,1.46,1.15,1.37,1.37,0,0,0,.34,0,1.49,1.49,0,0,0,1.12-1.8Z"/><path class="cls-1" d="M10.13,31.62H24.74a3.59,3.59,0,0,0,2.13-.69,3.55,3.55,0,0,0,2.13.69H43.6a3.57,3.57,0,0,0,2.13-.69,3.59,3.59,0,0,0,2.13.69H62.47A3.62,3.62,0,0,0,66.09,28V21.18a7.85,7.85,0,0,0-4.27-7,8.65,8.65,0,1,0-13.31,0,7.7,7.7,0,0,0-2.78,2.38A7.7,7.7,0,0,0,43,14.16,8.64,8.64,0,0,0,36.3,0a8.64,8.64,0,0,0-6.66,14.16,7.67,7.67,0,0,0-2.77,2.38,7.7,7.7,0,0,0-2.78-2.38,8.65,8.65,0,1,0-13.31,0,7.85,7.85,0,0,0-4.28,7V28A3.63,3.63,0,0,0,10.13,31.62ZM55.16,3a5.65,5.65,0,1,1-5.64,5.65A5.65,5.65,0,0,1,55.16,3ZM51.27,16.36a8.62,8.62,0,0,0,7.79,0,4.87,4.87,0,0,1,4,4.82V28a.64.64,0,0,1-.63.64H47.86a.64.64,0,0,1-.63-.64V21.18A4.88,4.88,0,0,1,51.27,16.36ZM36.3,3a5.65,5.65,0,1,1-5.65,5.65A5.66,5.66,0,0,1,36.3,3ZM32.41,16.36a8.6,8.6,0,0,0,7.78,0,4.87,4.87,0,0,1,4,4.82V28a.64.64,0,0,1-.63.64H29a.64.64,0,0,1-.63-.64V21.18A4.88,4.88,0,0,1,32.41,16.36ZM17.43,3a5.65,5.65,0,1,1-5.64,5.65A5.65,5.65,0,0,1,17.43,3ZM9.5,21.18a4.88,4.88,0,0,1,4-4.82,8.62,8.62,0,0,0,7.79,0,4.87,4.87,0,0,1,4,4.82V28a.64.64,0,0,1-.63.64H10.13A.64.64,0,0,1,9.5,28Z"/></g></g></svg>