<svg xmlns="http://www.w3.org/2000/svg" viewBox="0 0 85.3 76.3"><defs><style>.cls-1{fill:#2f00fb;}</style></defs><g id="Layer_2" data-name="Layer 2"><g id="Layer_1-2" data-name="Layer 1"><path class="cls-1" d="M51.65,28A14.66,14.66,0,1,0,66.31,42.65,14.67,14.67,0,0,0,51.65,28Zm0,26A11.33,11.33,0,1,1,63,42.65,11.34,11.34,0,0,1,51.65,54Z"/><path class="cls-1" d="M51.65,35.15a1.67,1.67,0,0,0,0,3.34,4.16,4.16,0,0,1,4.16,4.16,1.67,1.67,0,1,0,3.33,0A7.51,7.51,0,0,0,51.65,35.15Z"/><path class="cls-1" d="M10.27,12.56a1.67,1.67,0,0,0-3,1.53l4.49,8.67a1.66,1.66,0,0,0,3-.05l2.71-5.65,3,5.7a1.68,1.68,0,0,0,1.48.9h0a1.66,1.66,0,0,0,1.47-.95l4.16-8.66a1.66,1.66,0,0,0-3-1.44l-2.72,5.65-2.94-5.7a1.71,1.71,0,0,0-1.51-.9,1.69,1.69,0,0,0-1.48.95l-2.71,5.65Z"/><path class="cls-1" d="M21,3.33a1.67,1.67,0,0,0,1.67-1.66,1.67,1.67,0,0,0-3.34,0A1.67,1.67,0,0,0,21,3.33Z"/><path class="cls-1" d="M85.3,28.66v-22A6.67,6.67,0,0,0,78.64,0H28a1.67,1.67,0,1,0,0,3.33H78.64A3.34,3.34,0,0,1,82,6.66v22A3.34,3.34,0,0,1,78.64,32H70.5A21.8,21.8,0,0,0,58.79,22.2l2.47-5.14,2.95,5.7a1.66,1.66,0,0,0,1.48.9h0a1.69,1.69,0,0,0,1.48-.95l4.16-8.66a1.67,1.67,0,0,0-3-1.44l-2.71,5.65-2.95-5.7a1.69,1.69,0,0,0-1.5-.9,1.66,1.66,0,0,0-1.48.95L57,18.26,54,12.56a1.68,1.68,0,0,0-2.25-.71,1.65,1.65,0,0,0-.71,2.24l3.68,7.13A21.18,21.18,0,0,0,51.65,21a21.74,21.74,0,0,0-5.91.82l3.73-7.76a1.67,1.67,0,0,0-3-1.44l-2.71,5.65-3-5.7a1.68,1.68,0,0,0-1.51-.9,1.66,1.66,0,0,0-1.47.95L35.1,18.26l-3-5.7a1.67,1.67,0,0,0-3,1.53l4.49,8.67a1.66,1.66,0,0,0,3-.05l2.71-5.65,3,5.7a1.51,1.51,0,0,0,.18.26,21.76,21.76,0,0,0-9.7,9H6.66a3.34,3.34,0,0,1-3.33-3.33v-22A3.34,3.34,0,0,1,6.66,3.33h6.83a1.67,1.67,0,1,0,0-3.33H6.66A6.67,6.67,0,0,0,0,6.66v22a6.67,6.67,0,0,0,6.66,6.66H31.27A21.65,21.65,0,0,0,62.43,61.43L75.66,74.65a5.65,5.65,0,0,0,8-8l-5.2-5.2a1.67,1.67,0,0,0-2.36,2.36l5.2,5.2A2.32,2.32,0,0,1,78,72.29L65.23,59.51A21.63,21.63,0,0,0,72,35.32h6.61A6.67,6.67,0,0,0,85.3,28.66ZM51.65,61A18.33,18.33,0,1,1,70,42.65,18.35,18.35,0,0,1,51.65,61Z"/><path class="cls-1" d="M72.14,57.51A1.67,1.67,0,1,0,73.32,57,1.68,1.68,0,0,0,72.14,57.51Z"/></g></g></svg>