<svg xmlns="http://www.w3.org/2000/svg" viewBox="0 0 23.95 23.95"><defs><style>.cls-1{fill:#fff;}.cls-2{fill:#2f00fb;}</style></defs><g id="Layer_2" data-name="Layer 2"><g id="Layer_1-2" data-name="Layer 1"><circle class="cls-1" cx="11.98" cy="11.98" r="11.98"/><path class="cls-2" d="M18.52,8.69a1.72,1.72,0,0,0-1.21-1.2A40.05,40.05,0,0,0,12,7.2a41.61,41.61,0,0,0-5.34.28A1.75,1.75,0,0,0,5.43,8.69,18.16,18.16,0,0,0,5.15,12a18,18,0,0,0,.28,3.28,1.72,1.72,0,0,0,1.21,1.2,40.34,40.34,0,0,0,5.34.29,41.47,41.47,0,0,0,5.33-.28,1.72,1.72,0,0,0,1.21-1.2A18.07,18.07,0,0,0,18.8,12,17.34,17.34,0,0,0,18.52,8.69Z"/><path class="cls-1" d="M10.62,14l3.55-2L10.62,9.93Z"/></g></g></svg>